<?xml version="1.0" encoding="UTF-8"?>
<svg width="20px" height="20px" viewBox="0 0 20 20" version="1.1" xmlns="http://www.w3.org/2000/svg" xmlns:xlink="http://www.w3.org/1999/xlink">
    <!-- Generator: Sketch 49.3 (51167) - http://www.bohemiancoding.com/sketch -->
    <title>checkmark</title>
    <desc>Created with Sketch.</desc>
    <defs></defs>
    <g id="Designs" stroke="none" stroke-width="1" fill="none" fill-rule="evenodd">
        <g id="Question-selected-CORRECT" transform="translate(-420.000000, -129.000000)">
            <g id="Group-2" transform="translate(395.000000, 97.000000)">
                <g id="good-job" transform="translate(25.000000, 30.000000)">
                    <g id="checkmark" transform="translate(0.000000, 2.000000)">
                        <circle id="Oval" fill="#46C28D" cx="10" cy="10" r="10"></circle>
                        <path d="M7,10 L15,10 C15.5522847,10 16,10.4477153 16,11 L16,12 C16,12.5522847 15.5522847,13 15,13 L5,13 C4.44771525,13 4,12.5522847 4,12 L4,10 L4,6 C4,5.44771525 4.44771525,5 5,5 L6,5 C6.55228475,5 7,5.44771525 7,6 L7,10 Z" id="Combined-Shape" fill="#E9F7F1" transform="translate(10.000000, 9.000000) rotate(-45.000000) translate(-10.000000, -9.000000) "></path>
                    </g>
                </g>
            </g>
        </g>
    </g>
</svg>