<?xml version="1.0" encoding="UTF-8"?>
<svg width="20px" height="19px" viewBox="0 0 20 19" version="1.1" xmlns="http://www.w3.org/2000/svg" xmlns:xlink="http://www.w3.org/1999/xlink">
    <!-- Generator: Sketch 49.3 (51167) - http://www.bohemiancoding.com/sketch -->
    <title>Triangle-warning</title>
    <desc>Created with Sketch.</desc>
    <defs></defs>
    <g id="Designs" stroke="none" stroke-width="1" fill="none" fill-rule="evenodd">
        <g id="Question-selected-INCORRECT" transform="translate(-411.000000, -149.000000)">
            <g id="Group-2" transform="translate(395.000000, 97.000000)">
                <g id="Incorrect-answer" transform="translate(16.000000, 30.000000)">
                    <g id="Triangle-warning" transform="translate(0.000000, 22.000000)">
                        <path d="M10.8944272,0.788854382 L19.2763932,17.5527864 C19.5233825,18.0467649 19.3231581,18.6474379 18.8291796,18.8944272 C18.6903242,18.9638549 18.5372111,19 18.381966,19 L1.61803399,19 C1.06574924,19 0.618033989,18.5522847 0.618033989,18 C0.618033989,17.8447549 0.654179081,17.6916418 0.723606798,17.5527864 L9.10557281,0.788854382 C9.35256206,0.294875885 9.9532351,0.0946515378 10.4472136,0.341640786 C10.640741,0.438404488 10.7976635,0.59532698 10.8944272,0.788854382 Z" id="Triangle" fill="#EC5152"></path>
                        <g id="Group-3" stroke-width="1" transform="translate(9.000000, 6.000000)" fill="#FAEBEB">
                            <path d="M0.999518083,0 C1.5515079,-1.01398885e-16 1.99898406,0.447476162 1.99898406,0.999465982 C1.99898406,1.02613506 1.99791664,1.05279345 1.99578434,1.07937715 L1.36046602,9 L0.638570149,9 L0.00325182668,1.07937715 C-0.0408818916,0.529154487 0.369384257,0.0473334433 0.919606917,0.00319972505 C0.946190615,0.00106742934 0.972849006,4.89902994e-18 0.999518083,0 Z" id="Rectangle-3"></path>
                            <path d="M1,10 C1.27614237,10 1.5,10.2238576 1.5,10.5 C1.5,10.7761424 1.27614237,11 1,11 C0.723857625,11 0.5,10.7761424 0.5,10.5 C0.5,10.2238576 0.723857625,10 1,10 Z" id="Rectangle-4"></path>
                        </g>
                    </g>
                </g>
            </g>
        </g>
    </g>
</svg>